<?xml version="1.0" standalone="no"?>
<!DOCTYPE svg PUBLIC "-//W3C//DTD SVG 20010904//EN"
 "http://www.w3.org/TR/2001/REC-SVG-20010904/DTD/svg10.dtd">
<svg version="1.0" xmlns="http://www.w3.org/2000/svg"
 width="720.000000pt" height="405.000000pt" viewBox="0 0 720.000000 405.000000"
 preserveAspectRatio="xMidYMid meet">

<g transform="translate(0.000000,405.000000) scale(0.100000,-0.100000)"
fill="#000000" stroke="none">
<path d="M1091 3765 c-1 -15 -3 -17 -10 -7 -6 10 -10 8 -14 -8 -5 -21 -7 -21
-22 -6 -37 37 -119 6 -113 -42 4 -38 40 -42 56 -7 7 14 12 32 12 40 0 17 9 19
28 6 21 -13 10 -54 -18 -68 -15 -8 -19 -13 -9 -13 8 0 24 7 35 15 29 22 54 19
55 -7 1 -16 4 -13 9 11 5 19 6 40 4 46 -3 6 2 12 11 12 18 0 20 -18 4 -34 -6
-6 -9 -17 -7 -24 3 -8 13 5 23 29 23 51 32 49 10 -3 -22 -54 -9 -57 15 -4 18
41 20 42 20 15 0 -16 -8 -38 -17 -49 -17 -19 -17 -19 2 -16 16 4 21 13 23 57
3 50 2 52 -22 52 -15 0 -26 6 -26 13 -1 7 -6 5 -14 -5 -7 -10 -16 -18 -19 -18
-3 0 -8 8 -10 18 -4 14 -5 14 -6 -3z m-112 -47 c-5 -18 -9 -34 -9 -35 0 -2 -5
-3 -10 -3 -20 0 -22 31 -5 50 26 29 35 24 24 -12z m100 -9 c-19 -12 -24 -2 -8
17 9 11 14 13 17 4 3 -7 -2 -16 -9 -21z"/>
<path d="M1220 3744 c0 -23 3 -25 43 -22 35 2 43 7 45 26 3 20 -1 22 -42 22
-43 0 -46 -2 -46 -26z m70 1 c0 -10 -10 -15 -30 -15 -20 0 -30 5 -30 15 0 10
10 15 30 15 20 0 30 -5 30 -15z"/>
<path d="M1360 3760 c-16 -5 -19 -8 -7 -9 21 -1 22 -9 0 -33 -9 -10 -11 -18
-5 -18 6 0 14 5 17 10 3 6 14 10 23 10 16 -1 16 -1 0 -11 -10 -5 -18 -18 -18
-29 0 -22 51 -36 77 -21 15 8 10 10 -24 11 -41 0 -55 11 -32 26 6 3 15 1 19
-6 5 -8 9 -5 13 9 3 12 12 21 21 21 9 0 16 4 16 10 0 6 -9 6 -22 2 -28 -10
-61 -4 -53 9 4 5 18 9 32 9 31 0 28 5 -7 12 -14 3 -36 2 -50 -2z"/>
<path d="M720 3710 c0 -27 5 -50 10 -50 6 0 10 23 10 50 0 28 -4 50 -10 50 -5
0 -10 -22 -10 -50z"/>
<path d="M760 3710 c0 -48 1 -50 28 -50 35 0 52 16 52 50 0 34 -17 50 -52 50
-27 0 -28 -2 -28 -50z m58 4 c2 -22 -2 -33 -13 -38 -25 -9 -35 2 -35 40 0 31
3 35 23 32 17 -2 23 -11 25 -34z"/>
<path d="M3370 3460 l0 -290 -540 0 c-353 0 -540 -3 -540 -10 0 -7 187 -10
540 -10 l540 0 0 -35 0 -35 -510 0 c-326 0 -510 4 -510 10 0 6 -10 5 -25 -2
-14 -6 -25 -14 -25 -18 0 -4 11 -12 25 -18 15 -7 25 -8 25 -2 0 6 184 10 510
10 l510 0 0 -1435 0 -1435 1855 0 1855 0 0 1780 0 1780 -452 -2 -453 -3 448
-2 447 -3 0 -1770 0 -1770 -1845 0 -1845 0 0 1430 0 1430 60 0 c33 0 60 4 60
10 0 6 -27 10 -60 10 l-60 0 0 36 0 37 39 -6 c21 -2 45 -1 52 4 23 15 -8 28
-52 22 l-39 -6 0 287 0 286 438 3 437 2 -442 3 -443 2 0 -290z"/>
<path d="M850 3712 c0 -4 16 -9 35 -10 19 -2 35 1 35 6 0 4 -16 9 -35 10 -19
2 -35 -1 -35 -6z"/>
<path d="M1200 3682 c0 -24 4 -28 28 -27 21 1 28 7 30 28 3 24 0 27 -27 27
-27 0 -31 -3 -31 -28z m40 3 c0 -8 -7 -15 -15 -15 -8 0 -15 7 -15 15 0 8 7 15
15 15 8 0 15 -7 15 -15z"/>
<path d="M1270 3683 c0 -23 4 -28 25 -28 21 0 25 5 25 28 0 22 -4 27 -25 27
-21 0 -25 -5 -25 -27z m40 2 c0 -8 -7 -15 -15 -15 -8 0 -15 7 -15 15 0 8 7 15
15 15 8 0 15 -7 15 -15z"/>
<path d="M837 3585 c-20 -41 -21 -49 -7 -40 6 4 11 -8 11 -27 1 -18 5 -4 9 32
4 36 7 66 6 67 -1 2 -10 -13 -19 -32z"/>
<path d="M880 3612 c0 -7 0 -15 1 -18 0 -4 -5 -11 -13 -15 -8 -6 6 -9 37 -9
36 0 46 3 35 10 -11 7 -11 10 -2 10 10 0 10 3 0 14 -8 8 -17 11 -24 5 -6 -5
-15 -4 -22 3 -9 9 -12 9 -12 0z"/>
<path d="M981 3570 c0 -36 2 -41 10 -27 7 12 7 27 0 45 -9 25 -9 24 -10 -18z"/>
<path d="M1013 3603 c-22 -8 -14 -20 11 -16 17 4 25 0 28 -14 8 -30 -9 -63
-32 -63 -11 0 -20 -5 -20 -11 0 -14 42 -1 58 19 17 22 15 57 -4 76 -16 17 -21
18 -41 9z"/>
<path d="M1110 3600 c-13 -8 -13 -11 -1 -19 11 -7 11 -15 2 -42 -6 -18 -9 -34
-6 -37 5 -6 25 43 25 64 0 8 10 14 25 14 14 0 25 5 25 10 0 6 -6 10 -14 10 -8
0 -20 2 -28 5 -7 3 -20 0 -28 -5z"/>
<path d="M1230 3567 c0 -18 6 -42 14 -52 12 -16 16 -17 30 -6 9 7 16 18 16 24
0 7 -4 7 -12 -1 -21 -21 -28 -13 -28 28 0 22 -4 40 -10 40 -5 0 -10 -15 -10
-33z"/>
<path d="M1321 3590 c0 -8 6 -28 14 -45 10 -23 13 -25 14 -10 0 11 -6 31 -14
45 -8 14 -14 19 -14 10z"/>
<path d="M1163 3563 c9 -2 25 -2 35 0 9 3 1 5 -18 5 -19 0 -27 -2 -17 -5z"/>
<path d="M870 3528 c0 -31 2 -33 35 -33 33 0 35 2 35 33 0 30 -2 32 -35 32
-33 0 -35 -2 -35 -32z m60 12 c0 -5 -11 -10 -25 -10 -14 0 -25 5 -25 10 0 6
11 10 25 10 14 0 25 -4 25 -10z m-7 -27 c-7 -2 -21 -2 -30 0 -10 3 -4 5 12 5
17 0 24 -2 18 -5z"/>
<path d="M1147 3527 c-8 -21 10 -30 50 -24 28 4 28 4 -4 6 -21 1 -33 7 -35 19
-3 16 -4 16 -11 -1z"/>
<path d="M4475 3443 c-10 -16 -12 -22 -4 -15 7 6 21 12 32 12 26 0 18 -31 -13
-47 -17 -9 -20 -13 -8 -13 20 0 48 26 48 45 0 7 8 16 18 18 9 3 0 5 -21 6 -23
1 -36 5 -32 11 3 6 4 10 2 10 -3 0 -13 -12 -22 -27z"/>
<path d="M2688 3454 c-3 -5 -4 -20 -3 -34 2 -14 4 -30 4 -37 1 -16 28 -6 35
14 5 12 3 13 -7 5 -10 -8 -13 -7 -13 7 0 11 7 18 16 16 8 -1 18 3 22 9 5 8 8
7 8 -2 0 -7 5 -10 10 -7 17 11 11 22 -15 27 -13 3 -26 0 -29 -6 -3 -7 -8 -7
-14 3 -5 7 -12 9 -14 5z"/>
<path d="M2800 3440 c0 -16 7 -20 35 -20 28 0 35 4 35 20 0 16 -7 20 -35 20
-28 0 -35 -4 -35 -20z m60 0 c0 -5 -11 -10 -25 -10 -14 0 -25 5 -25 10 0 6 11
10 25 10 14 0 25 -4 25 -10z"/>
<path d="M4178 3453 c51 -7 42 -58 -13 -66 -17 -2 -3 -4 30 -4 33 0 51 2 40 4
-17 3 -20 10 -17 38 4 35 4 35 -34 33 -37 -1 -38 -1 -6 -5z"/>
<path d="M4392 3451 c22 -5 25 -9 15 -21 -7 -9 -23 -24 -37 -33 -13 -9 -20
-17 -14 -17 6 0 19 6 30 14 17 13 22 13 44 -1 24 -16 25 -16 8 3 -11 12 -15
28 -11 42 5 20 2 22 -28 21 -32 -1 -32 -2 -7 -8z"/>
<path d="M4703 3453 c35 -6 34 -15 -4 -47 -17 -14 -27 -26 -23 -26 4 0 16 7
26 17 17 15 19 15 36 0 10 -10 23 -17 28 -17 5 0 -2 9 -16 20 -20 15 -23 21
-12 31 21 22 14 29 -25 28 -31 -2 -33 -3 -10 -6z"/>
<path d="M3007 3432 c-9 -10 -17 -25 -17 -32 0 -8 -11 -3 -28 13 -33 32 -40
33 -58 10 -21 -28 -16 -38 5 -12 l19 24 21 -26 c13 -17 30 -26 51 -27 26 -1
33 4 42 29 12 34 31 34 36 1 2 -15 -4 -25 -20 -32 -17 -7 -18 -9 -4 -7 10 1
24 10 30 20 26 41 -43 76 -77 39z m25 -17 c-2 -14 -11 -25 -18 -25 -17 0 -18
22 -2 38 19 19 26 14 20 -13z"/>
<path d="M2736 3395 c-9 -26 -7 -32 5 -12 6 10 9 21 6 23 -2 3 -7 -2 -11 -11z"/>
<path d="M2758 3387 c-3 -19 -2 -25 4 -19 6 6 8 18 6 28 -3 14 -5 12 -10 -9z"/>
<path d="M2780 3390 c0 -15 7 -20 25 -20 18 0 25 5 25 20 0 15 -7 20 -25 20
-18 0 -25 -5 -25 -20z m40 0 c0 -5 -7 -10 -15 -10 -8 0 -15 5 -15 10 0 6 7 10
15 10 8 0 15 -4 15 -10z"/>
<path d="M2840 3391 c0 -10 9 -21 20 -24 16 -4 20 0 20 19 0 17 -6 24 -20 24
-13 0 -20 -7 -20 -19z m30 -1 c0 -5 -4 -10 -10 -10 -5 0 -10 5 -10 10 0 6 5
10 10 10 6 0 10 -4 10 -10z"/>
<path d="M4298 3333 c6 -2 12 -13 12 -24 0 -10 -6 -19 -12 -19 -9 0 -9 -3 1
-9 8 -5 11 -16 8 -26 -4 -9 -3 -14 3 -10 6 3 10 12 10 20 0 7 6 16 13 18 10 4
10 6 0 6 -7 1 -13 10 -13 20 0 11 6 22 13 24 6 3 -1 5 -18 5 -16 0 -24 -2 -17
-5z"/>
<path d="M4427 3333 c-4 -3 -7 -21 -7 -40 0 -29 -3 -33 -25 -33 -30 0 -33 24
-8 52 15 17 15 18 -13 18 -16 0 -24 -4 -18 -8 6 -4 10 -20 10 -37 -1 -27 2
-30 29 -30 24 0 31 5 33 23 2 12 6 20 10 18 4 -2 7 7 7 20 0 24 -6 30 -18 17z"/>
<path d="M4500 3302 c0 -30 -4 -42 -14 -42 -8 0 -17 8 -19 18 -3 11 -5 9 -6
-8 -1 -24 1 -25 44 -22 39 4 45 7 44 26 -1 16 -2 17 -6 4 -9 -34 -32 -20 -31
17 1 19 -2 38 -5 42 -4 3 -7 -12 -7 -35z"/>
<path d="M2642 3300 c0 -19 2 -27 5 -17 2 9 2 25 0 35 -3 9 -5 1 -5 -18z"/>
<path d="M2702 3298 c-2 -30 -7 -38 -29 -46 -24 -9 -25 -11 -7 -11 30 -1 46
22 41 61 l-4 33 -1 -37z"/>
<path d="M2753 3301 c-16 -26 -16 -26 4 -8 23 20 53 23 53 4 0 -15 -26 -41
-50 -50 -12 -4 -12 -6 1 -6 22 -1 56 28 63 55 6 18 2 22 -24 26 -24 4 -33 -1
-47 -21z"/>
<path d="M3070 3285 c0 -25 5 -45 10 -45 6 0 10 11 10 25 0 22 3 24 19 15 11
-5 23 -10 28 -10 4 1 -4 8 -19 16 -16 8 -28 21 -28 29 0 8 -4 15 -10 15 -5 0
-10 -20 -10 -45z"/>
<path d="M4251 3298 c-1 -29 2 -36 14 -32 9 4 15 18 14 38 l-1 31 -8 -30 -7
-30 -5 30 c-5 28 -5 28 -7 -7z"/>
<path d="M4471 3314 c0 -11 3 -14 6 -6 3 7 2 16 -1 19 -3 4 -6 -2 -5 -13z"/>
<path d="M4536 3315 c-3 -8 -1 -15 4 -15 6 0 10 7 10 15 0 8 -2 15 -4 15 -2 0
-6 -7 -10 -15z"/>
<path d="M4584 3290 c1 -29 5 -36 24 -38 25 -4 52 13 52 32 0 6 -7 3 -14 -6
-7 -10 -23 -18 -34 -18 -16 0 -22 8 -25 33 -4 32 -4 32 -3 -3z"/>
<path d="M2858 3313 c17 -3 22 -11 22 -33 0 -24 -5 -29 -27 -33 -16 -2 0 -5
35 -6 41 0 71 4 86 14 21 14 24 14 36 0 7 -8 17 -15 23 -15 5 0 2 9 -7 19 -11
13 -15 27 -11 40 6 19 3 21 -32 19 l-38 -1 34 -4 33 -4 -28 -30 c-20 -21 -37
-29 -61 -29 -30 0 -33 3 -33 29 0 23 5 31 23 34 12 2 0 4 -28 4 -27 0 -40 -2
-27 -4z"/>
<path d="M3682 3280 c0 -14 2 -19 5 -12 2 6 2 18 0 25 -3 6 -5 1 -5 -13z"/>
<path d="M3720 3281 c0 -12 5 -21 10 -21 6 0 10 6 10 14 0 8 -4 18 -10 21 -5
3 -10 -3 -10 -14z"/>
<path d="M3760 3280 c0 -11 5 -20 10 -20 6 0 10 9 10 20 0 11 -4 20 -10 20 -5
0 -10 -9 -10 -20z"/>
<path d="M3800 3280 c0 -11 5 -20 10 -20 6 0 10 9 10 20 0 11 -4 20 -10 20 -5
0 -10 -9 -10 -20z"/>
<path d="M3845 3287 c-4 -10 -5 -21 -1 -24 10 -10 18 4 13 24 -4 17 -4 17 -12
0z"/>
<path d="M3885 3287 c-4 -10 -5 -21 -1 -24 10 -10 18 4 13 24 -4 17 -4 17 -12
0z"/>
<path d="M5020 3281 c0 -12 5 -21 10 -21 6 0 10 6 10 14 0 8 -4 18 -10 21 -5
3 -10 -3 -10 -14z"/>
<path d="M5060 3280 c0 -11 5 -20 10 -20 6 0 10 9 10 20 0 11 -4 20 -10 20 -5
0 -10 -9 -10 -20z"/>
<path d="M5100 3280 c0 -11 5 -20 10 -20 6 0 10 9 10 20 0 11 -4 20 -10 20 -5
0 -10 -9 -10 -20z"/>
<path d="M5140 3280 c0 -11 5 -20 10 -20 6 0 10 9 10 20 0 11 -4 20 -10 20 -5
0 -10 -9 -10 -20z"/>
<path d="M5180 3280 c0 -11 5 -20 10 -20 6 0 10 9 10 20 0 11 -4 20 -10 20 -5
0 -10 -9 -10 -20z"/>
<path d="M5225 3287 c-4 -10 -5 -21 -1 -24 10 -10 18 4 13 24 -4 17 -4 17 -12
0z"/>
<path d="M310 3273 c-91 -33 -74 -163 21 -163 47 0 79 34 79 81 0 51 -57 97
-100 82z"/>
<path d="M3656 3224 c-3 -9 -6 -71 -6 -139 0 -103 3 -124 16 -129 9 -3 69 -6
134 -6 98 0 119 3 124 16 3 9 6 71 6 139 0 103 -3 124 -16 129 -9 3 -69 6
-134 6 -98 0 -119 -3 -124 -16z m222 -126 l-3 -93 -87 -3 -88 -3 0 89 c0 49 3
92 7 95 3 4 44 7 90 7 l84 0 -3 -92z"/>
<path d="M3720 3095 l0 -65 70 0 70 0 0 65 0 65 -70 0 -70 0 0 -65z"/>
<path d="M4994 3227 c-2 -7 -3 -69 -2 -138 l3 -124 135 0 135 0 0 135 0 135
-133 3 c-103 2 -134 0 -138 -11z m226 -127 l0 -90 -90 0 -90 0 0 90 0 90 90 0
90 0 0 -90z"/>
<path d="M5060 3100 l0 -70 70 0 70 0 0 70 0 70 -70 0 -70 0 0 -70z"/>
<path d="M3590 3200 c0 -5 9 -10 20 -10 11 0 20 5 20 10 0 6 -9 10 -20 10 -11
0 -20 -4 -20 -10z"/>
<path d="M3950 3200 c0 -5 9 -10 20 -10 11 0 20 5 20 10 0 6 -9 10 -20 10 -11
0 -20 -4 -20 -10z"/>
<path d="M4935 3200 c3 -5 13 -10 21 -10 8 0 14 5 14 10 0 6 -9 10 -21 10 -11
0 -17 -4 -14 -10z"/>
<path d="M5290 3200 c0 -5 6 -10 14 -10 8 0 18 5 21 10 3 6 -3 10 -14 10 -12
0 -21 -4 -21 -10z"/>
<path d="M1133 3173 c-277 -2 -433 -7 -433 -13 0 -6 151 -10 424 -10 233 0
430 -2 438 -5 7 -3 20 0 28 5 13 9 13 11 0 20 -8 5 -17 9 -20 7 -3 -1 -200 -3
-437 -4z"/>
<path d="M4433 3173 c-251 -2 -393 -7 -393 -13 0 -6 138 -10 384 -10 211 0
390 -2 398 -5 7 -3 20 0 28 5 13 9 13 11 0 20 -8 5 -17 9 -20 7 -3 -1 -182 -3
-397 -4z"/>
<path d="M3590 3160 c0 -5 9 -10 20 -10 11 0 20 5 20 10 0 6 -9 10 -20 10 -11
0 -20 -4 -20 -10z"/>
<path d="M3950 3160 c0 -5 9 -10 20 -10 11 0 20 5 20 10 0 6 -9 10 -20 10 -11
0 -20 -4 -20 -10z"/>
<path d="M4930 3160 c0 -5 9 -10 20 -10 11 0 20 5 20 10 0 6 -9 10 -20 10 -11
0 -20 -4 -20 -10z"/>
<path d="M5290 3160 c0 -5 9 -10 20 -10 11 0 20 5 20 10 0 6 -9 10 -20 10 -11
0 -20 -4 -20 -10z"/>
<path d="M3595 3120 c-3 -5 3 -10 15 -10 12 0 18 5 15 10 -3 6 -10 10 -15 10
-5 0 -12 -4 -15 -10z"/>
<path d="M3955 3120 c-3 -5 3 -10 15 -10 12 0 18 5 15 10 -3 6 -10 10 -15 10
-5 0 -12 -4 -15 -10z"/>
<path d="M4930 3120 c0 -5 9 -10 20 -10 11 0 20 5 20 10 0 6 -9 10 -20 10 -11
0 -20 -4 -20 -10z"/>
<path d="M5290 3120 c0 -5 9 -10 20 -10 11 0 20 5 20 10 0 6 -9 10 -20 10 -11
0 -20 -4 -20 -10z"/>
<path d="M733 3087 c-29 -13 -29 -21 2 -35 15 -7 25 -8 25 -2 0 6 156 10 430
10 280 0 430 3 430 10 0 7 -150 10 -429 10 -236 0 -431 4 -433 9 -1 4 -13 4
-25 -2z"/>
<path d="M4083 3087 c-29 -13 -29 -21 2 -35 15 -7 25 -8 25 -2 0 6 142 10 390
10 253 0 390 4 390 10 0 6 -136 10 -389 10 -214 0 -391 4 -393 9 -1 4 -13 4
-25 -2z"/>
<path d="M1798 3064 c-11 -22 -10 -28 7 -40 10 -8 25 -14 32 -14 15 0 33 32
33 59 0 33 -57 29 -72 -5z"/>
<path d="M1900 3071 c-5 -11 -10 -47 -10 -81 0 -55 2 -61 26 -72 38 -18 54 9
54 89 0 51 -3 64 -19 73 -28 15 -39 13 -51 -9z"/>
<path d="M4930 3080 c0 -5 9 -10 20 -10 11 0 20 5 20 10 0 6 -9 10 -20 10 -11
0 -20 -4 -20 -10z"/>
<path d="M5290 3080 c0 -5 9 -10 20 -10 11 0 20 5 20 10 0 6 -9 10 -20 10 -11
0 -20 -4 -20 -10z"/>
<path d="M223 3056 c-56 -27 -67 -46 -61 -107 l3 -34 165 0 165 0 3 47 c3 41
-1 52 -22 71 -56 52 -169 62 -253 23z"/>
<path d="M3598 3068 c9 -9 15 -9 24 0 9 9 7 12 -12 12 -19 0 -21 -3 -12 -12z"/>
<path d="M3958 3068 c9 -9 15 -9 24 0 9 9 7 12 -12 12 -19 0 -21 -3 -12 -12z"/>
<path d="M4930 3040 c0 -5 9 -10 20 -10 11 0 20 5 20 10 0 6 -9 10 -20 10 -11
0 -20 -4 -20 -10z"/>
<path d="M5290 3040 c0 -5 9 -10 20 -10 11 0 20 5 20 10 0 6 -9 10 -20 10 -11
0 -20 -4 -20 -10z"/>
<path d="M3590 3030 c0 -5 9 -10 20 -10 11 0 20 5 20 10 0 6 -9 10 -20 10 -11
0 -20 -4 -20 -10z"/>
<path d="M3950 3030 c0 -5 9 -10 20 -10 11 0 20 5 20 10 0 6 -9 10 -20 10 -11
0 -20 -4 -20 -10z"/>
<path d="M4935 3000 c-3 -5 3 -10 14 -10 12 0 21 5 21 10 0 6 -6 10 -14 10 -8
0 -18 -4 -21 -10z"/>
<path d="M5290 3000 c0 -5 9 -10 21 -10 11 0 17 5 14 10 -3 6 -13 10 -21 10
-8 0 -14 -4 -14 -10z"/>
<path d="M3590 2990 c0 -5 9 -10 20 -10 11 0 20 5 20 10 0 6 -9 10 -20 10 -11
0 -20 -4 -20 -10z"/>
<path d="M3950 2990 c0 -5 9 -10 20 -10 11 0 20 5 20 10 0 6 -9 10 -20 10 -11
0 -20 -4 -20 -10z"/>
<path d="M2929 2973 c-1 -5 -1 -11 0 -15 0 -5 -6 -8 -14 -8 -8 0 -15 6 -15 13
0 8 -2 9 -8 1 -4 -7 -16 -14 -27 -17 -19 -4 -18 -5 2 -6 17 -1 23 -8 26 -33
l4 -33 1 33 c2 24 7 32 21 32 14 0 19 6 18 20 -1 20 -6 27 -8 13z"/>
<path d="M4436 2956 c-17 -27 -17 -27 3 -17 11 6 24 11 30 11 19 0 12 -28 -11
-44 -25 -18 -17 -21 13 -6 10 6 19 17 19 25 0 8 8 19 18 24 14 9 12 10 -15 11
-17 0 -33 5 -35 11 -2 7 -12 0 -22 -15z"/>
<path d="M4143 2963 c22 -4 27 -9 27 -33 0 -26 -4 -29 -37 -33 -24 -2 -16 -4
22 -4 33 0 52 1 43 4 -13 3 -18 15 -18 39 0 32 -2 34 -32 33 -31 -2 -31 -2 -5
-6z"/>
<path d="M4353 2963 c35 -6 34 -16 -5 -49 -29 -24 -30 -25 -5 -10 27 17 30 17
50 -1 22 -18 22 -18 4 4 -15 17 -16 25 -7 42 10 20 8 21 -27 20 -30 -2 -32 -3
-10 -6z"/>
<path d="M4669 2961 l34 -6 -37 -32 c-39 -35 -40 -43 -2 -18 21 14 24 14 36 0
7 -8 17 -15 23 -15 5 0 2 9 -7 19 -11 13 -15 27 -11 40 6 19 2 21 -32 20 l-38
-2 34 -6z"/>
<path d="M4746 2949 c-8 -12 -12 -28 -9 -35 9 -24 34 -15 46 16 13 34 19 37
38 14 11 -14 10 -19 -10 -35 -13 -11 -19 -19 -13 -19 13 0 42 28 42 40 0 17
-32 40 -55 40 -13 0 -31 -10 -39 -21z m28 -11 c-8 -29 -10 -31 -23 -23 -8 4
-8 12 -1 26 15 27 33 24 24 -3z"/>
<path d="M2652 2923 c-1 -26 2 -43 9 -43 17 0 69 33 69 44 0 5 -8 2 -17 -6
-38 -32 -52 -29 -56 10 l-4 37 -1 -42z"/>
<path d="M2779 2951 l34 -6 -37 -32 c-37 -33 -38 -45 -2 -18 17 13 22 13 38
-2 22 -20 51 -8 56 23 3 16 1 16 -13 -4 -14 -19 -20 -21 -32 -11 -9 8 -12 21
-8 36 5 21 2 23 -32 22 l-38 -2 34 -6z"/>
<path d="M2970 2950 c8 -5 20 -10 25 -10 6 0 3 5 -5 10 -8 5 -19 10 -25 10 -5
0 -3 -5 5 -10z"/>
<path d="M3093 2953 c35 -6 34 -16 -5 -49 -29 -24 -30 -25 -5 -10 27 17 30 17
50 -1 22 -18 22 -18 4 4 -15 17 -16 25 -7 42 10 20 8 21 -27 20 -30 -2 -32 -3
-10 -6z"/>
<path d="M5020 2919 c0 -11 5 -17 10 -14 6 3 10 13 10 21 0 8 -4 14 -10 14 -5
0 -10 -9 -10 -21z"/>
<path d="M5060 2920 c0 -11 5 -20 10 -20 6 0 10 9 10 20 0 11 -4 20 -10 20 -5
0 -10 -9 -10 -20z"/>
<path d="M5100 2920 c0 -11 5 -20 10 -20 6 0 10 9 10 20 0 11 -4 20 -10 20 -5
0 -10 -9 -10 -20z"/>
<path d="M5140 2920 c0 -11 5 -20 10 -20 6 0 10 9 10 20 0 11 -4 20 -10 20 -5
0 -10 -9 -10 -20z"/>
<path d="M5180 2920 c0 -11 5 -20 10 -20 6 0 10 9 10 20 0 11 -4 20 -10 20 -5
0 -10 -9 -10 -20z"/>
<path d="M5220 2926 c0 -8 5 -18 10 -21 6 -3 10 3 10 14 0 12 -4 21 -10 21 -5
0 -10 -6 -10 -14z"/>
<path d="M2920 2918 c0 -9 5 -20 11 -23 17 -11 18 -2 3 19 -12 17 -14 17 -14
4z"/>
<path d="M3030 2921 c0 -5 -17 -16 -37 -24 -29 -12 -32 -16 -16 -16 12 -1 35
10 50 24 15 13 22 25 16 25 -7 0 -13 -4 -13 -9z"/>
<path d="M3682 2910 c0 -14 2 -19 5 -12 2 6 2 18 0 25 -3 6 -5 1 -5 -13z"/>
<path d="M3720 2909 c0 -11 5 -17 10 -14 6 3 10 13 10 21 0 8 -4 14 -10 14 -5
0 -10 -9 -10 -21z"/>
<path d="M3760 2910 c0 -11 5 -20 10 -20 6 0 10 9 10 20 0 11 -4 20 -10 20 -5
0 -10 -9 -10 -20z"/>
<path d="M3800 2910 c0 -11 5 -20 10 -20 6 0 10 9 10 20 0 11 -4 20 -10 20 -5
0 -10 -9 -10 -20z"/>
<path d="M3840 2916 c0 -8 5 -18 10 -21 6 -3 10 3 10 14 0 12 -4 21 -10 21 -5
0 -10 -6 -10 -14z"/>
<path d="M3880 2916 c0 -8 5 -18 10 -21 6 -3 10 3 10 14 0 12 -4 21 -10 21 -5
0 -10 -6 -10 -14z"/>
<path d="M408 2868 c0 -7 -2 -17 -3 -23 -2 -5 -3 -16 -4 -23 0 -7 -11 -17 -23
-22 -17 -6 -18 -9 -6 -9 24 -1 48 26 48 54 0 13 6 26 13 28 7 3 5 6 -5 6 -10
1 -19 -5 -20 -11z"/>
<path d="M163 2863 c22 -4 27 -9 27 -33 0 -26 -4 -29 -37 -33 -24 -2 -16 -4
22 -4 33 0 52 1 41 4 -15 4 -17 11 -13 39 6 34 5 34 -31 33 -30 -2 -32 -3 -9
-6z"/>
<path d="M355 2860 c-3 -5 -1 -18 4 -27 9 -16 10 -14 11 10 0 28 -5 34 -15 17z"/>
<path d="M1864 2858 c-7 -10 14 -32 40 -41 6 -2 7 -8 3 -13 -4 -4 -17 -2 -29
5 -17 10 -19 10 -16 -1 3 -7 15 -13 29 -13 30 0 38 31 10 40 -12 3 -21 11 -21
16 0 6 9 7 21 4 15 -5 19 -4 15 4 -9 14 -43 14 -52 -1z"/>
<path d="M1933 2830 c0 -25 2 -35 4 -22 2 12 2 32 0 45 -2 12 -4 2 -4 -23z"/>
<path d="M2060 2857 c0 -8 -10 -13 -22 -13 -18 1 -23 -5 -23 -24 0 -21 5 -25
33 -27 17 -1 32 3 32 9 0 6 7 4 17 -3 15 -13 15 -12 5 7 -8 16 -8 24 1 34 10
10 8 12 -5 7 -12 -4 -18 -1 -18 8 0 8 -4 15 -10 15 -5 0 -10 -6 -10 -13z m0
-38 c0 -12 -29 -24 -37 -16 -3 4 -3 13 0 21 6 16 37 11 37 -5z"/>
<path d="M3573 2830 c0 -25 2 -35 4 -22 2 12 2 32 0 45 -2 12 -4 2 -4 -23z"/>
<path d="M3780 2860 c0 -5 -9 -10 -20 -10 -16 0 -20 -6 -19 -32 1 -30 2 -30 8
-9 10 36 31 38 32 4 1 -28 1 -28 8 -3 7 30 51 42 47 14 -2 -10 -9 -20 -16 -22
-7 -3 -10 0 -6 7 4 6 2 11 -3 11 -6 0 -11 -7 -11 -15 0 -9 10 -15 26 -15 22 0
25 4 22 28 -2 21 -8 27 -28 28 -14 0 -24 6 -22 12 1 7 -2 12 -8 12 -5 0 -10
-4 -10 -10z"/>
<path d="M3650 2832 c0 -17 3 -33 8 -35 9 -6 8 50 -1 60 -4 3 -7 -8 -7 -25z"/>
<path d="M4914 2820 c1 -30 4 -35 26 -35 22 0 25 4 27 40 l1 40 -6 -35 c-9
-48 -39 -53 -45 -8 l-4 33 1 -35z"/>
<path d="M1954 2839 c-4 -7 0 -9 13 -5 14 4 19 1 20 -14 1 -13 -4 -20 -15 -20
-15 0 -15 2 -2 10 13 8 12 10 -3 10 -26 0 -16 -24 11 -28 19 -3 22 1 22 27 0
24 -4 31 -19 31 -11 0 -23 -5 -27 -11z"/>
<path d="M3597 2844 c-11 -11 -8 -54 3 -54 6 0 10 11 10 25 0 33 17 32 23 0 4
-23 4 -23 3 2 -1 27 -24 42 -39 27z"/>
<path d="M3684 2835 c-13 -32 23 -63 40 -36 4 5 -3 7 -14 4 -11 -3 -20 0 -20
6 0 6 10 11 21 11 18 0 19 2 9 15 -7 8 -17 15 -22 15 -5 0 -11 -7 -14 -15z"/>
<path d="M3860 2839 c0 -7 8 -18 18 -26 16 -14 16 -14 0 -9 -10 3 -18 1 -18
-4 0 -6 9 -10 20 -10 25 0 26 18 3 37 -17 14 -17 14 0 9 11 -3 16 -2 12 4 -8
14 -35 13 -35 -1z"/>
<path d="M3914 2836 c-12 -33 23 -65 40 -37 4 5 -3 7 -14 4 -11 -3 -20 0 -20
6 0 6 9 11 21 11 12 0 19 5 17 13 -7 18 -37 21 -44 3z"/>
<path d="M3975 2839 c-4 -6 1 -17 11 -25 18 -15 18 -15 -1 -9 -15 5 -17 3 -8
-6 6 -6 19 -9 29 -5 13 5 14 10 6 18 -6 6 -8 17 -5 24 6 16 -23 19 -32 3z"/>
<path d="M4379 2848 c-6 -16 -5 -80 2 -84 5 -3 9 4 9 15 0 10 6 22 13 24 9 4
9 6 0 6 -7 1 -10 7 -7 15 3 8 1 17 -5 21 -6 3 -12 5 -12 3z"/>
<path d="M4423 2843 c-10 -4 -9 -8 1 -19 16 -16 30 -19 21 -5 -3 5 3 11 12 13
16 3 16 4 -2 9 -11 3 -26 4 -32 2z"/>
<path d="M4480 2820 c0 -17 5 -30 13 -30 7 0 4 -7 -7 -15 -23 -17 -14 -20 15
-5 14 8 19 7 19 -2 0 -8 5 -6 11 5 5 9 16 17 23 17 8 0 11 10 8 30 -4 27 -8
30 -43 30 -37 0 -39 -2 -39 -30z m37 14 c-3 -3 -12 -4 -19 -1 -8 3 -5 6 6 6
11 1 17 -2 13 -5z m0 -20 c-3 -3 -12 -4 -19 -1 -8 3 -5 6 6 6 11 1 17 -2 13
-5z"/>
<path d="M4980 2829 c0 -7 8 -18 18 -26 16 -14 16 -14 0 -9 -10 3 -18 1 -18
-4 0 -6 9 -10 20 -10 25 0 26 18 3 37 -17 14 -17 14 0 9 11 -3 16 -2 12 4 -8
14 -35 13 -35 -1z"/>
<path d="M5034 2826 c-12 -33 23 -65 40 -37 4 5 -3 7 -14 4 -11 -3 -20 0 -20
6 0 6 9 11 21 11 12 0 19 5 17 13 -7 18 -37 21 -44 3z"/>
<path d="M5093 2823 c-11 -27 5 -40 51 -40 44 -1 46 0 46 27 0 27 -2 28 -46
27 -29 0 -48 -5 -51 -14z m84 -15 c1 -11 -5 -18 -15 -18 -15 0 -15 2 -2 10 10
7 11 10 2 10 -7 0 -21 -5 -32 -12 -21 -13 -35 -6 -27 14 2 7 20 13 39 14 26 0
34 -4 35 -18z"/>
<path d="M5205 2829 c-4 -6 1 -17 11 -25 18 -15 18 -15 -1 -9 -15 5 -17 3 -8
-6 6 -6 19 -9 29 -5 13 5 14 10 6 18 -6 6 -8 17 -5 24 6 16 -23 19 -32 3z"/>
<path d="M5261 2827 c-15 -19 -4 -47 20 -47 10 0 19 4 19 10 0 5 -7 7 -15 4
-8 -4 -15 -1 -15 5 0 6 7 11 16 11 9 0 14 5 12 12 -6 18 -24 20 -37 5z"/>
<path d="M5315 2829 c-4 -6 1 -17 11 -25 18 -15 18 -15 -1 -9 -15 5 -17 3 -8
-6 6 -6 19 -9 29 -5 13 5 14 10 6 18 -6 6 -8 17 -5 24 6 16 -23 19 -32 3z"/>
<path d="M4411 2791 c-19 -12 -4 -31 25 -31 17 0 24 5 24 20 0 21 -24 27 -49
11z m39 -11 c0 -5 -7 -10 -15 -10 -8 0 -15 5 -15 10 0 6 7 10 15 10 8 0 15 -4
15 -10z"/>
<path d="M4547 2769 c7 -7 15 -10 18 -7 3 3 -2 9 -12 12 -14 6 -15 5 -6 -5z"/>
<path d="M5158 2453 c-3 -271 -2 -293 12 -293 4 0 9 6 11 13 8 27 -3 547 -11
547 -5 0 -10 -116 -12 -267z"/>
<path d="M5072 2685 c-7 -15 -8 -25 -2 -25 6 0 10 -95 10 -255 0 -163 4 -255
10 -255 6 0 10 92 10 255 0 160 4 255 10 255 6 0 5 10 -2 25 -6 14 -14 25 -18
25 -4 0 -12 -11 -18 -25z"/>
<path d="M4586 2473 c-19 -25 -6 -32 14 -8 13 16 50 21 50 7 0 -17 -32 -52
-48 -53 -12 0 -13 -2 -4 -6 17 -7 62 35 62 58 0 28 -53 30 -74 2z"/>
<path d="M4786 2492 c-3 -4 -3 -17 -1 -28 2 -10 4 -30 5 -44 1 -23 2 -23 9 -5
5 11 7 23 4 28 -2 4 1 7 6 7 6 0 11 -10 11 -22 0 -18 6 -23 25 -23 19 0 25 5
25 23 0 16 -6 22 -22 22 -30 0 -52 15 -44 28 3 6 2 13 -3 16 -5 4 -12 3 -15
-2z m74 -62 c0 -5 -7 -10 -15 -10 -8 0 -15 5 -15 10 0 6 7 10 15 10 8 0 15 -4
15 -10z"/>
<path d="M4832 2491 c-6 -4 -5 -11 4 -19 8 -7 14 -8 14 -3 0 5 8 11 18 13 14
3 14 5 -4 10 -12 3 -26 3 -32 -1z"/>
<path d="M4888 2470 c-3 -22 -1 -30 11 -30 14 -1 13 -3 -2 -14 -17 -13 -16
-14 7 -12 15 0 26 5 26 9 0 4 9 3 19 -3 29 -15 38 -12 15 5 -11 8 -14 15 -6
15 7 0 12 13 12 30 0 28 -2 30 -39 30 -35 0 -39 -3 -43 -30z m69 14 c-3 -3
-12 -4 -19 -1 -8 3 -5 6 6 6 11 1 17 -2 13 -5z m0 -20 c-3 -3 -12 -4 -19 -1
-8 3 -5 6 6 6 11 1 17 -2 13 -5z"/>
<path d="M5613 2471 c-16 -26 -16 -26 4 -8 11 9 29 17 40 17 29 0 19 -36 -16
-55 -18 -10 -21 -14 -9 -15 18 0 58 45 58 65 0 7 -13 15 -30 17 -24 4 -33 -1
-47 -21z"/>
<path d="M5918 2494 c-3 -5 -4 -20 -3 -34 2 -14 4 -34 5 -45 1 -11 6 -2 10 20
7 38 -1 78 -12 59z"/>
<path d="M5963 2493 c9 -2 23 -2 30 0 6 3 -1 5 -18 5 -16 0 -22 -2 -12 -5z"/>
<path d="M4260 2450 l0 -40 40 0 40 0 0 40 0 40 -40 0 -40 0 0 -40z m70 0 c0
-27 -3 -30 -30 -30 -27 0 -30 3 -30 30 0 27 3 30 30 30 27 0 30 -3 30 -30z"/>
<path d="M4388 2483 c7 -3 16 -2 19 1 4 3 -2 6 -13 5 -11 0 -14 -3 -6 -6z"/>
<path d="M4687 2472 c-23 -26 -22 -52 3 -52 15 0 22 9 27 30 7 36 36 38 41 2
2 -16 -3 -25 -20 -31 -16 -7 -18 -10 -6 -10 9 -1 20 4 24 10 4 8 9 7 16 -2 5
-9 6 -3 2 16 -4 17 -11 36 -17 43 -14 18 -51 15 -70 -6z m19 -27 c-7 -18 -26
-20 -26 -2 0 18 24 41 28 27 2 -6 1 -17 -2 -25z"/>
<path d="M5280 2450 l0 -40 45 0 45 0 0 40 0 40 -45 0 -45 0 0 -40z m80 0 c0
-28 -3 -30 -35 -30 -32 0 -35 2 -35 30 0 28 3 30 35 30 32 0 35 -2 35 -30z"/>
<path d="M5400 2486 c0 -2 9 -6 20 -9 11 -3 18 -1 14 4 -5 9 -34 13 -34 5z"/>
<path d="M5718 2479 c-26 -15 -24 -59 2 -59 15 0 22 9 27 31 4 21 10 28 20 25
8 -4 17 -6 19 -6 13 0 1 -31 -18 -44 -25 -18 -17 -21 13 -6 21 12 25 40 7 58
-15 15 -47 15 -70 1z m18 -34 c-7 -18 -26 -20 -26 -2 0 18 24 41 28 27 2 -6 1
-17 -2 -25z"/>
<path d="M5807 2478 c2 -5 12 -8 21 -9 14 0 13 -2 -3 -9 -18 -8 -18 -9 5 -10
l25 -2 -25 -8 c-14 -4 -19 -8 -11 -9 11 -1 10 -5 -5 -16 -18 -13 -18 -14 4 -8
12 3 25 9 28 14 3 5 17 2 32 -7 25 -15 25 -15 8 0 -20 16 -20 16 0 17 15 1 14
3 -6 9 -21 7 -22 8 -5 10 l20 1 -20 9 c-16 7 -17 9 -3 9 9 1 19 4 21 9 3 4
-17 7 -43 7 -26 0 -46 -3 -43 -7z"/>
<path d="M4368 2458 c5 -5 16 -8 23 -6 8 3 3 7 -10 11 -17 4 -21 3 -13 -5z"/>
<path d="M4470 2461 c0 -5 5 -13 10 -16 6 -3 10 -2 10 4 0 5 -4 13 -10 16 -5
3 -10 2 -10 -4z"/>
<path d="M4519 2440 c-25 -29 -27 -38 -3 -22 10 6 38 53 32 52 -2 -1 -15 -14
-29 -30z"/>
<path d="M5398 2458 c5 -5 16 -8 23 -6 8 3 3 7 -10 11 -17 4 -21 3 -13 -5z"/>
<path d="M5500 2461 c0 -6 4 -13 10 -16 6 -3 7 1 4 9 -7 18 -14 21 -14 7z"/>
<path d="M5560 2458 c0 -9 -12 -26 -27 -37 l-28 -21 27 11 c27 12 46 44 34 56
-3 4 -6 -1 -6 -9z"/>
<path d="M5964 2463 c14 -4 17 -11 12 -34 -3 -19 -2 -28 4 -24 6 3 10 17 10
30 0 13 6 26 13 28 6 3 -4 5 -23 5 -19 0 -27 -2 -16 -5z"/>
<path d="M4434 2449 c-3 -6 -20 -17 -38 -25 -17 -7 -25 -13 -18 -14 19 0 72
29 72 40 0 13 -7 13 -16 -1z"/>
<path d="M5460 2445 c-7 -8 -27 -19 -44 -24 -24 -7 -26 -9 -9 -10 12 -1 35 10
50 24 15 13 25 25 22 25 -4 0 -12 -7 -19 -15z"/>
<path d="M1421 2365 c-1 -17 -3 -18 -11 -5 -8 13 -10 12 -10 -2 0 -20 -15 -24
-25 -8 -12 19 -73 11 -95 -12 -22 -24 -23 -28 -14 -52 15 -39 64 -6 64 43 0
24 22 28 40 6 16 -19 5 -50 -23 -63 -15 -7 -17 -11 -6 -11 8 -1 24 6 35 14 28
21 44 18 45 -7 1 -16 4 -13 9 11 5 19 6 40 4 46 -3 6 2 12 11 12 18 0 20 -18
4 -34 -6 -6 -9 -17 -7 -24 3 -8 13 5 23 29 23 51 32 49 10 -3 -22 -54 -9 -57
15 -4 18 41 20 42 20 15 0 -16 -8 -38 -17 -49 -17 -19 -17 -19 2 -16 16 4 21
13 23 57 3 50 2 52 -22 52 -15 0 -26 6 -26 13 -1 7 -6 5 -14 -5 -7 -10 -16
-18 -19 -18 -3 0 -8 8 -10 18 -4 14 -5 14 -6 -3z m-110 -58 c-6 -15 -15 -27
-21 -27 -17 0 -11 48 8 59 21 12 26 2 13 -32z m98 2 c-19 -12 -24 -2 -8 17 9
11 14 13 17 4 3 -7 -2 -16 -9 -21z"/>
<path d="M1550 2345 c0 -23 4 -25 45 -25 41 0 45 2 45 25 0 23 -4 25 -45 25
-41 0 -45 -2 -45 -25z m78 3 c-3 -7 -17 -13 -33 -13 -16 0 -30 6 -32 13 -3 8
7 12 32 12 25 0 35 -4 33 -12z"/>
<path d="M1690 2360 c-16 -5 -19 -8 -7 -9 21 -1 22 -9 0 -33 -9 -10 -11 -18
-5 -18 6 0 14 5 17 10 3 6 14 10 23 10 16 -1 16 -1 0 -11 -10 -5 -18 -18 -18
-29 0 -22 51 -36 77 -21 15 8 10 10 -24 11 -41 0 -55 11 -32 26 6 3 15 1 19
-6 5 -8 9 -5 13 9 3 12 12 21 21 21 9 0 16 4 16 10 0 6 -9 6 -22 2 -28 -10
-61 -4 -53 9 4 5 18 9 32 9 31 0 28 5 -7 12 -14 3 -36 2 -50 -2z"/>
<path d="M1050 2310 c0 -27 5 -50 10 -50 6 0 10 23 10 50 0 28 -4 50 -10 50
-5 0 -10 -22 -10 -50z"/>
<path d="M1090 2311 c0 -49 1 -51 29 -51 37 0 53 20 49 62 -3 30 -6 33 -40 36
l-38 3 0 -50z m58 27 c18 -18 14 -46 -7 -58 -29 -15 -31 -13 -31 30 0 41 14
52 38 28z"/>
<path d="M1180 2312 c0 -5 16 -9 35 -10 19 -1 35 2 35 6 0 4 -16 9 -35 10 -19
2 -35 -1 -35 -6z"/>
<path d="M1532 2283 c2 -21 9 -27 31 -28 23 -1 27 3 27 27 0 25 -4 28 -31 28
-27 0 -30 -3 -27 -27z m38 2 c0 -8 -4 -15 -10 -15 -5 0 -10 7 -10 15 0 8 5 15
10 15 6 0 10 -7 10 -15z"/>
<path d="M1600 2282 c0 -25 4 -29 30 -29 26 0 30 4 30 29 0 24 -4 28 -30 28
-26 0 -30 -4 -30 -28z m40 3 c0 -8 -4 -15 -10 -15 -5 0 -10 7 -10 15 0 8 5 15
10 15 6 0 10 -7 10 -15z"/>
<path d="M1038 2206 c-18 -13 -26 -32 -10 -22 12 7 9 -77 -3 -87 -5 -5 1 -6
15 -2 33 10 61 10 81 1 12 -5 14 0 11 30 -3 21 0 39 7 43 6 4 9 15 6 24 -8 19
-35 31 -35 14 0 -8 -3 -7 -9 2 -8 12 -12 12 -26 -2 -15 -16 -15 -17 4 -17 11
0 23 -4 26 -10 4 -6 -7 -10 -26 -10 -28 0 -31 3 -27 25 3 14 5 25 4 25 0 0 -9
-7 -18 -14z m70 -53 c-10 -2 -28 -2 -40 0 -13 2 -5 4 17 4 22 1 32 -1 23 -4z
m0 -30 c-10 -2 -28 -2 -40 0 -13 2 -5 4 17 4 22 1 32 -1 23 -4z"/>
<path d="M1348 2214 c-5 -4 -8 -16 -8 -26 0 -26 -28 -22 -33 5 -4 19 -4 18 -6
-5 -1 -22 4 -28 19 -28 15 0 20 -7 20 -25 0 -16 -6 -25 -15 -25 -8 0 -15 9
-15 20 0 11 -4 20 -10 20 -5 0 -10 -12 -10 -27 0 -27 1 -28 60 -28 l60 0 -1
30 c-1 24 -3 25 -6 8 -6 -33 -43 -31 -43 2 0 18 5 25 20 25 15 0 20 6 19 28
-2 23 -2 24 -6 5 -6 -31 -31 -29 -35 3 -2 14 -6 22 -10 18z"/>
<path d="M1182 2163 c-2 -44 1 -54 19 -64 17 -9 26 -7 47 8 14 11 27 26 30 34
2 8 -5 3 -16 -9 -12 -16 -27 -23 -43 -20 -21 3 -25 10 -30 53 l-6 50 -1 -52z"/>
<path d="M1452 2163 c-2 -44 1 -54 19 -64 17 -9 26 -7 47 8 14 11 27 26 30 34
2 8 -5 3 -16 -9 -12 -16 -27 -23 -43 -20 -21 3 -25 10 -30 53 l-6 50 -1 -52z"/>
<path d="M1598 2202 c-16 -2 -28 -7 -28 -12 0 -5 12 -11 28 -13 l27 -4 -27 -2
c-16 0 -28 -5 -28 -11 0 -5 12 -10 28 -11 l27 -1 -25 -7 c-14 -4 -26 -14 -28
-23 -4 -21 35 -30 53 -12 11 12 19 12 35 4 11 -6 20 -7 20 -2 0 5 -12 15 -27
22 -20 9 -24 14 -13 17 42 13 44 16 15 23 l-30 8 28 1 c15 0 27 5 27 10 0 10
-44 17 -82 13z m22 -82 c0 -5 -9 -10 -21 -10 -11 0 -17 5 -14 10 3 6 13 10 21
10 8 0 14 -4 14 -10z"/>
<path d="M1735 2199 l-40 -6 35 -2 c31 -1 33 -3 18 -15 -26 -19 -23 -46 5 -46
21 -1 21 -1 3 -15 -11 -8 -17 -17 -14 -21 4 -3 16 4 27 15 15 15 20 28 15 46
-5 20 -1 27 17 33 l23 9 -25 4 c-13 2 -42 1 -64 -2z m30 -49 c-3 -5 -10 -10
-16 -10 -5 0 -9 5 -9 10 0 6 7 10 16 10 8 0 12 -4 9 -10z"/>
<path d="M5020 2081 c0 -12 5 -21 10 -21 6 0 10 6 10 14 0 8 -4 18 -10 21 -5
3 -10 -3 -10 -14z"/>
<path d="M5060 2080 c0 -11 5 -20 10 -20 6 0 10 9 10 20 0 11 -4 20 -10 20 -5
0 -10 -9 -10 -20z"/>
<path d="M5100 2080 c0 -11 5 -20 10 -20 6 0 10 9 10 20 0 11 -4 20 -10 20 -5
0 -10 -9 -10 -20z"/>
<path d="M5140 2080 c0 -11 5 -20 10 -20 6 0 10 9 10 20 0 11 -4 20 -10 20 -5
0 -10 -9 -10 -20z"/>
<path d="M5180 2080 c0 -11 5 -20 10 -20 6 0 10 9 10 20 0 11 -4 20 -10 20 -5
0 -10 -9 -10 -20z"/>
<path d="M5225 2087 c-4 -10 -5 -21 -1 -24 10 -10 18 4 13 24 -4 17 -4 17 -12
0z"/>
<path d="M4994 2027 c-2 -7 -3 -69 -2 -138 l3 -124 135 0 135 0 0 135 0 135
-133 3 c-103 2 -134 0 -138 -11z m226 -127 l0 -90 -90 0 -90 0 0 90 0 90 90 0
90 0 0 -90z"/>
<path d="M5060 1900 l0 -70 70 0 70 0 0 70 0 70 -70 0 -70 0 0 -70z"/>
<path d="M4935 2000 c3 -5 13 -10 21 -10 8 0 14 5 14 10 0 6 -9 10 -21 10 -11
0 -17 -4 -14 -10z"/>
<path d="M5290 2000 c0 -5 6 -10 14 -10 8 0 18 5 21 10 3 6 -3 10 -14 10 -12
0 -21 -4 -21 -10z"/>
<path d="M4930 1960 c0 -5 9 -10 20 -10 11 0 20 5 20 10 0 6 -9 10 -20 10 -11
0 -20 -4 -20 -10z"/>
<path d="M5290 1960 c0 -5 9 -10 20 -10 11 0 20 5 20 10 0 6 -9 10 -20 10 -11
0 -20 -4 -20 -10z"/>
<path d="M4930 1920 c0 -5 9 -10 20 -10 11 0 20 5 20 10 0 6 -9 10 -20 10 -11
0 -20 -4 -20 -10z"/>
<path d="M5290 1920 c0 -5 9 -10 20 -10 11 0 20 5 20 10 0 6 -9 10 -20 10 -11
0 -20 -4 -20 -10z"/>
<path d="M4930 1880 c0 -5 9 -10 20 -10 11 0 20 5 20 10 0 6 -9 10 -20 10 -11
0 -20 -4 -20 -10z"/>
<path d="M5290 1880 c0 -5 9 -10 20 -10 11 0 20 5 20 10 0 6 -9 10 -20 10 -11
0 -20 -4 -20 -10z"/>
<path d="M4930 1840 c0 -5 9 -10 20 -10 11 0 20 5 20 10 0 6 -9 10 -20 10 -11
0 -20 -4 -20 -10z"/>
<path d="M5290 1840 c0 -5 9 -10 20 -10 11 0 20 5 20 10 0 6 -9 10 -20 10 -11
0 -20 -4 -20 -10z"/>
<path d="M4935 1800 c-3 -5 3 -10 14 -10 12 0 21 5 21 10 0 6 -6 10 -14 10 -8
0 -18 -4 -21 -10z"/>
<path d="M5290 1800 c0 -5 9 -10 21 -10 11 0 17 5 14 10 -3 6 -13 10 -21 10
-8 0 -14 -4 -14 -10z"/>
<path d="M5020 1719 c0 -11 5 -17 10 -14 6 3 10 13 10 21 0 8 -4 14 -10 14 -5
0 -10 -9 -10 -21z"/>
<path d="M5060 1720 c0 -11 5 -20 10 -20 6 0 10 9 10 20 0 11 -4 20 -10 20 -5
0 -10 -9 -10 -20z"/>
<path d="M5100 1720 c0 -11 5 -20 10 -20 6 0 10 9 10 20 0 11 -4 20 -10 20 -5
0 -10 -9 -10 -20z"/>
<path d="M5140 1720 c0 -11 5 -20 10 -20 6 0 10 9 10 20 0 11 -4 20 -10 20 -5
0 -10 -9 -10 -20z"/>
<path d="M5180 1720 c0 -11 5 -20 10 -20 6 0 10 9 10 20 0 11 -4 20 -10 20 -5
0 -10 -9 -10 -20z"/>
<path d="M5220 1726 c0 -8 5 -18 10 -21 6 -3 10 3 10 14 0 12 -4 21 -10 21 -5
0 -10 -6 -10 -14z"/>
<path d="M4960 1620 c0 -39 1 -41 28 -38 24 3 27 7 27 38 0 31 -3 35 -27 38
-27 3 -28 1 -28 -38z m45 0 c0 -16 -6 -26 -17 -28 -14 -3 -18 3 -18 28 0 25 4
31 18 28 11 -2 17 -12 17 -28z"/>
<path d="M5034 1626 c-9 -24 4 -48 23 -44 12 2 18 12 18 28 0 29 -32 41 -41
16z m31 -16 c0 -7 -6 -15 -12 -17 -8 -3 -13 4 -13 17 0 13 5 20 13 18 6 -3 12
-11 12 -18z"/>
<path d="M5091 1608 c2 -31 2 -31 6 -5 2 15 9 27 14 27 5 0 10 -12 10 -27 1
-21 2 -23 6 -8 8 34 23 41 23 12 0 -31 7 -33 34 -12 18 13 18 15 3 15 -10 0
-20 7 -23 15 -4 9 -19 15 -40 15 -32 0 -34 -2 -33 -32z"/>
<path d="M5174 1629 c-4 -7 0 -9 13 -5 14 4 19 1 20 -13 1 -11 -6 -22 -15 -24
-12 -3 -10 -5 6 -6 18 -1 22 4 22 29 0 23 -5 30 -19 30 -11 0 -23 -5 -27 -11z"/>
<path d="M5261 1608 c2 -31 2 -31 6 -5 2 15 8 27 13 27 5 0 11 -12 13 -27 4
-26 4 -26 6 5 1 26 -3 32 -19 32 -16 0 -20 -6 -19 -32z"/>
<path d="M5230 1605 c0 -14 5 -25 10 -25 6 0 10 11 10 25 0 14 -4 25 -10 25
-5 0 -10 -11 -10 -25z"/>
<path d="M5158 1263 c-3 -271 -2 -293 12 -293 4 0 9 6 11 13 8 27 -3 547 -11
547 -5 0 -10 -116 -12 -267z"/>
<path d="M5072 1495 c-7 -15 -8 -25 -2 -25 6 0 10 -95 10 -255 0 -163 4 -255
10 -255 6 0 10 92 10 255 0 160 4 255 10 255 6 0 5 10 -2 25 -6 14 -14 25 -18
25 -4 0 -12 -11 -18 -25z"/>
<path d="M5636 1372 c-14 -3 -16 -6 -6 -12 11 -7 11 -11 0 -24 -11 -14 -10
-16 3 -10 12 4 14 1 10 -15 -3 -12 -1 -21 6 -21 6 0 8 7 4 17 -5 12 -2 15 9
10 10 -3 19 1 22 10 5 12 1 14 -14 10 -13 -3 -20 0 -20 8 0 8 10 15 23 17 21
3 21 4 2 9 -11 3 -29 3 -39 1z"/>
<path d="M5740 1359 l-25 -21 28 16 c35 21 47 14 49 -32 l1 -37 4 33 c3 21 9
30 16 26 7 -3 1 4 -13 15 -31 25 -29 25 -60 0z"/>
<path d="M5413 1330 c0 -25 2 -35 4 -22 2 12 2 32 0 45 -2 12 -4 2 -4 -23z"/>
<path d="M5498 1358 c-2 -7 -1 -26 3 -43 6 -28 7 -28 9 -5 1 14 3 33 5 43 4
19 -11 24 -17 5z"/>
<path d="M5844 1336 c1 -26 6 -41 16 -43 10 -3 11 -2 3 4 -6 4 -13 24 -16 43
-4 34 -4 33 -3 -4z"/>
<path d="M5953 1363 c18 -3 25 -9 20 -16 -5 -9 -3 -9 8 -1 8 6 21 14 29 17 8
3 -7 5 -35 5 -27 -1 -38 -3 -22 -5z"/>
<path d="M6040 1330 c0 -39 1 -41 28 -38 24 3 27 7 27 38 0 31 -3 35 -27 38
-27 3 -28 1 -28 -38z m45 0 c0 -16 -6 -26 -17 -28 -14 -3 -18 3 -18 28 0 25 4
31 18 28 11 -2 17 -12 17 -28z"/>
<path d="M6110 1330 c0 -39 1 -41 28 -38 24 3 27 7 27 38 0 31 -3 35 -27 38
-27 3 -28 1 -28 -38z m50 20 c0 -5 -9 -10 -20 -10 -11 0 -20 5 -20 10 0 6 9
10 20 10 11 0 20 -4 20 -10z m-2 -38 c2 -7 -6 -12 -17 -12 -21 0 -27 11 -14
24 9 9 26 2 31 -12z"/>
<path d="M5441 1318 c2 -31 2 -31 6 -5 2 15 8 27 13 27 5 0 11 -12 13 -27 4
-26 4 -26 6 5 1 26 -3 32 -19 32 -16 0 -20 -6 -19 -32z"/>
<path d="M5530 1339 c0 -5 5 -7 10 -4 6 3 10 8 10 11 0 2 -4 4 -10 4 -5 0 -10
-5 -10 -11z"/>
<path d="M5565 1341 c-3 -7 0 -8 9 -5 11 4 16 0 16 -15 0 -12 -5 -21 -11 -21
-5 0 -7 5 -4 10 3 6 1 10 -4 10 -6 0 -11 -7 -11 -15 0 -9 10 -15 26 -15 22 0
25 4 22 27 -3 28 -30 43 -43 24z"/>
<path d="M5738 1317 c-3 -19 -2 -25 4 -19 6 6 8 18 6 28 -3 14 -5 12 -10 -9z"/>
<path d="M5898 1308 c-10 -10 -14 -18 -9 -18 10 0 36 29 30 34 -2 1 -12 -6
-21 -16z"/>
<path d="M5960 1324 c0 -17 27 -37 42 -31 8 4 7 6 -4 6 -9 1 -22 9 -27 19 -6
9 -11 12 -11 6z"/>
<path d="M5393 1221 c-16 -26 -16 -26 4 -8 20 17 63 24 63 9 0 -13 -23 -38
-45 -50 -11 -6 -14 -12 -7 -12 17 0 62 45 62 63 0 9 -13 17 -30 19 -24 4 -33
-1 -47 -21z"/>
<path d="M5502 1238 c-1 -10 -8 -18 -14 -18 -9 0 -10 -2 -2 -8 7 -4 13 -16 15
-27 3 -14 12 -20 34 -21 27 -1 28 -1 3 3 -24 4 -27 9 -31 46 -2 23 -4 34 -5
25z"/>
<path d="M5712 1242 c-7 -2 -9 -8 -6 -13 3 -6 0 -16 -6 -24 -18 -22 -4 -18 17
4 10 10 27 21 38 23 17 3 17 5 -5 9 -14 3 -31 4 -38 1z"/>
<path d="M5906 1241 c-4 -6 -2 -11 4 -11 7 0 8 -6 2 -17 -5 -10 -6 -27 -2 -38
6 -16 8 -12 12 18 4 40 -4 67 -16 48z"/>
<path d="M5953 1243 c9 -2 23 -2 30 0 6 3 -1 5 -18 5 -16 0 -22 -2 -12 -5z"/>
<path d="M6130 1240 c17 -5 19 -8 8 -9 -24 -1 -24 -41 -1 -41 15 0 15 -1 -1
-13 -16 -11 -13 -13 21 -13 21 -1 30 1 21 3 -25 6 -23 23 2 23 30 0 27 40 -2
41 -22 1 -22 1 2 9 20 6 14 8 -25 8 -39 0 -45 -2 -25 -8z m20 -30 c0 -5 -4
-10 -10 -10 -5 0 -10 5 -10 10 0 6 5 10 10 10 6 0 10 -4 10 -10z m40 0 c0 -5
-7 -10 -15 -10 -8 0 -15 5 -15 10 0 6 7 10 15 10 8 0 15 -4 15 -10z"/>
<path d="M6220 1230 c-6 -12 -7 -20 -1 -20 10 0 9 -19 -1 -36 -4 -6 -1 -11 7
-11 8 0 17 7 21 16 5 14 7 13 14 -4 8 -17 9 -18 9 -2 1 10 -6 20 -15 24 -13 5
-13 7 -2 14 10 7 9 9 -4 9 -10 0 -18 4 -18 10 0 5 7 7 15 4 8 -4 15 -4 15 -1
0 16 -31 13 -40 -3z"/>
<path d="M6273 1233 c-4 -9 -1 -19 5 -21 7 -2 13 -16 13 -30 1 -27 1 -26 8 3
4 20 2 31 -6 33 -19 5 -16 20 5 25 16 4 16 5 -1 6 -10 0 -21 -7 -24 -16z"/>
<path d="M5342 1220 c-7 -11 -9 -20 -4 -20 4 0 13 9 20 20 7 11 9 20 4 20 -4
0 -13 -9 -20 -20z"/>
<path d="M5623 1231 c24 -5 26 -8 15 -22 -7 -9 -24 -23 -38 -33 -13 -9 -20
-16 -14 -16 6 0 19 6 30 14 17 13 22 13 44 -1 25 -16 25 -16 7 5 -12 13 -16
28 -12 41 6 19 2 21 -27 20 -33 -1 -33 -1 -5 -8z"/>
<path d="M5538 1223 c20 -4 21 -7 10 -21 -12 -15 -11 -16 5 -3 25 20 21 31
-10 30 -25 -2 -25 -2 -5 -6z"/>
<path d="M5835 1220 c3 -5 -4 -10 -17 -11 -23 -1 -23 -1 2 -9 l25 -8 -25 -2
c-14 -1 -19 -4 -12 -7 6 -2 10 -9 6 -14 -3 -5 -1 -9 5 -9 5 0 13 5 16 10 5 8
11 7 21 -1 8 -6 17 -9 21 -5 3 3 0 6 -8 7 -8 0 -6 4 6 9 18 8 18 9 -5 10 -23
1 -23 2 -5 10 17 7 17 9 3 9 -10 1 -18 6 -18 11 0 6 -5 10 -11 10 -5 0 -7 -4
-4 -10z"/>
<path d="M5311 1208 c-1 -9 -8 -24 -17 -32 -8 -9 -11 -16 -5 -16 14 0 34 38
27 53 -2 7 -5 5 -5 -5z"/>
<path d="M5953 1213 c10 -3 18 -15 18 -31 l2 -27 4 25 c3 14 10 28 17 32 6 4
-5 7 -24 7 -19 -1 -27 -3 -17 -6z"/>
<path d="M5726 1191 c-12 -13 -14 -21 -6 -26 6 -4 9 -1 8 7 -2 7 2 12 9 11 6
-1 14 4 17 12 8 21 -8 19 -28 -4z"/>
<path d="M5733 891 c-16 -26 -16 -26 4 -8 11 9 29 17 40 17 29 0 19 -36 -16
-55 -18 -10 -21 -14 -9 -15 18 0 58 45 58 65 0 7 -13 15 -30 17 -24 4 -33 -1
-47 -21z"/>
<path d="M5840 908 c0 -10 -6 -18 -12 -18 -9 0 -10 -2 -2 -8 7 -4 13 -16 15
-27 3 -14 12 -20 34 -21 28 -1 29 -1 3 3 -22 3 -28 10 -28 29 0 19 5 24 26 24
24 0 25 -2 13 -17 -10 -13 -8 -13 10 2 l23 20 -33 3 c-19 2 -37 9 -41 15 -5 8
-8 6 -8 -5z"/>
<path d="M6155 910 c25 -6 26 -8 7 -9 -18 -1 -23 -6 -20 -23 2 -13 9 -22 17
-20 12 3 12 0 0 -14 -12 -15 -12 -17 1 -12 8 3 27 1 43 -3 16 -5 25 -4 22 2
-4 5 -15 9 -26 9 -10 0 -19 5 -19 10 0 6 9 10 20 10 26 0 28 40 3 41 -12 1
-10 4 7 9 19 6 12 8 -30 8 -45 0 -50 -2 -25 -8z m15 -30 c0 -5 -4 -10 -10 -10
-5 0 -10 5 -10 10 0 6 5 10 10 10 6 0 10 -4 10 -10z m40 0 c0 -5 -4 -10 -10
-10 -5 0 -10 5 -10 10 0 6 5 10 10 10 6 0 10 -4 10 -10z"/>
<path d="M6250 910 c-12 -8 -12 -10 5 -11 l20 0 -20 -9 c-13 -6 -15 -9 -5 -9
9 -1 11 -4 5 -9 -14 -10 -17 -32 -5 -33 38 -5 45 -2 48 19 5 31 22 28 23 -5
l1 -28 7 30 c5 24 3 31 -11 33 -23 4 -23 19 0 25 16 4 16 5 -1 6 -10 0 -20 -6
-23 -14 -6 -14 -8 -14 -18 0 -8 10 -15 12 -26 5z m40 -45 c0 -8 -2 -15 -4 -15
-2 0 -6 7 -10 15 -3 8 -1 15 4 15 6 0 10 -7 10 -15z"/>
<path d="M5460 870 c0 -39 2 -41 26 -38 15 2 32 11 38 21 15 24 -3 51 -38 55
-24 3 -26 1 -26 -38z m54 15 c8 -23 -4 -45 -25 -45 -14 0 -19 7 -19 30 0 23 5
30 19 30 10 0 21 -7 25 -15z"/>
<path d="M5540 870 c0 -39 1 -41 28 -38 24 3 27 7 27 38 0 31 -3 35 -27 38
-27 3 -28 1 -28 -38z m40 20 c0 -5 -7 -10 -15 -10 -8 0 -15 5 -15 10 0 6 7 10
15 10 8 0 15 -4 15 -10z m3 -35 c1 -5 -6 -11 -15 -13 -11 -2 -18 3 -18 13 0
17 30 18 33 0z"/>
<path d="M5628 903 c26 -5 28 -20 5 -52 -12 -18 -13 -23 -2 -19 8 2 18 19 24
36 5 18 16 32 23 32 12 0 12 -3 2 -15 -8 -10 -9 -15 -2 -15 6 0 16 9 22 20 10
19 8 20 -42 19 -29 -1 -43 -4 -30 -6z"/>
<path d="M5962 901 c22 -5 25 -9 15 -21 -7 -9 -23 -24 -37 -33 -13 -9 -20 -17
-14 -17 6 0 19 6 30 14 17 13 22 13 44 -1 24 -16 25 -16 8 3 -11 12 -15 28
-11 42 5 20 2 22 -28 21 -32 -1 -32 -2 -7 -8z"/>
<path d="M5020 881 c0 -12 5 -21 10 -21 6 0 10 6 10 14 0 8 -4 18 -10 21 -5 3
-10 -3 -10 -14z"/>
<path d="M5060 880 c0 -11 5 -20 10 -20 6 0 10 9 10 20 0 11 -4 20 -10 20 -5
0 -10 -9 -10 -20z"/>
<path d="M5100 880 c0 -11 5 -20 10 -20 6 0 10 9 10 20 0 11 -4 20 -10 20 -5
0 -10 -9 -10 -20z"/>
<path d="M5140 880 c0 -11 5 -20 10 -20 6 0 10 9 10 20 0 11 -4 20 -10 20 -5
0 -10 -9 -10 -20z"/>
<path d="M5180 880 c0 -11 5 -20 10 -20 6 0 10 9 10 20 0 11 -4 20 -10 20 -5
0 -10 -9 -10 -20z"/>
<path d="M5225 887 c-4 -10 -5 -21 -1 -24 10 -10 18 4 13 24 -4 17 -4 17 -12
0z"/>
<path d="M6558 890 c-55 -10 -68 -16 -68 -35 0 -31 179 -48 249 -24 93 33 -55
81 -181 59z"/>
<path d="M6070 870 c0 -5 5 -10 10 -10 6 0 10 5 10 10 0 6 -4 10 -10 10 -5 0
-10 -4 -10 -10z"/>
<path d="M4994 827 c-2 -7 -3 -69 -2 -138 l3 -124 135 0 135 0 0 135 0 135
-133 3 c-103 2 -134 0 -138 -11z m226 -127 l0 -90 -90 0 -90 0 0 90 0 90 90 0
90 0 0 -90z"/>
<path d="M5060 700 l0 -70 70 0 70 0 0 70 0 70 -70 0 -70 0 0 -70z"/>
<path d="M6492 778 c3 -43 4 -43 53 -56 55 -14 171 -10 204 8 16 8 21 21 21
50 0 39 0 39 -27 28 -39 -16 -202 -15 -231 1 -23 12 -23 12 -20 -31z m248 -18
c0 -5 -2 -10 -4 -10 -3 0 -8 5 -11 10 -3 6 -1 10 4 10 6 0 11 -4 11 -10z"/>
<path d="M4935 800 c3 -5 13 -10 21 -10 8 0 14 5 14 10 0 6 -9 10 -21 10 -11
0 -17 -4 -14 -10z"/>
<path d="M5290 800 c0 -5 6 -10 14 -10 8 0 18 5 21 10 3 6 -3 10 -14 10 -12 0
-21 -4 -21 -10z"/>
<path d="M4930 760 c0 -5 9 -10 20 -10 11 0 20 5 20 10 0 6 -9 10 -20 10 -11
0 -20 -4 -20 -10z"/>
<path d="M5290 760 c0 -5 9 -10 20 -10 11 0 20 5 20 10 0 6 -9 10 -20 10 -11
0 -20 -4 -20 -10z"/>
<path d="M5878 763 c-327 -2 -508 -7 -508 -13 0 -7 176 -10 498 -10 273 0 506
-3 517 -5 11 -3 27 -1 35 5 13 9 13 11 0 20 -8 5 -19 9 -25 7 -5 -1 -238 -3
-517 -4z"/>
<path d="M4930 720 c0 -5 9 -10 20 -10 11 0 20 5 20 10 0 6 -9 10 -20 10 -11
0 -20 -4 -20 -10z"/>
<path d="M5290 720 c0 -5 9 -10 20 -10 11 0 20 5 20 10 0 6 -9 10 -20 10 -11
0 -20 -4 -20 -10z"/>
<path d="M6725 702 c-41 -14 -182 -12 -218 3 -16 7 -18 3 -15 -31 3 -36 7 -40
43 -52 54 -18 200 -12 221 10 9 9 14 28 12 49 l-3 34 -40 -13z m20 -42 c3 -5
2 -10 -4 -10 -5 0 -13 5 -16 10 -3 6 -2 10 4 10 5 0 13 -4 16 -10z"/>
<path d="M4930 680 c0 -5 9 -10 20 -10 11 0 20 5 20 10 0 6 -9 10 -20 10 -11
0 -20 -4 -20 -10z"/>
<path d="M5290 680 c0 -5 9 -10 20 -10 11 0 20 5 20 10 0 6 -9 10 -20 10 -11
0 -20 -4 -20 -10z"/>
<path d="M5413 677 c-29 -13 -29 -21 2 -35 15 -7 25 -8 25 -2 0 6 181 10 500
10 327 0 500 3 500 10 0 7 -173 10 -499 10 -275 0 -501 4 -503 9 -1 4 -13 4
-25 -2z"/>
<path d="M4930 640 c0 -5 9 -10 20 -10 11 0 20 5 20 10 0 6 -9 10 -20 10 -11
0 -20 -4 -20 -10z"/>
<path d="M5290 640 c0 -5 9 -10 20 -10 11 0 20 5 20 10 0 6 -9 10 -20 10 -11
0 -20 -4 -20 -10z"/>
<path d="M4935 600 c-3 -5 3 -10 14 -10 12 0 21 5 21 10 0 6 -6 10 -14 10 -8
0 -18 -4 -21 -10z"/>
<path d="M5290 600 c0 -5 9 -10 21 -10 11 0 17 5 14 10 -3 6 -13 10 -21 10 -8
0 -14 -4 -14 -10z"/>
<path d="M6490 572 c0 -35 4 -41 32 -53 38 -16 181 -16 221 0 23 9 27 16 27
52 0 35 -3 40 -17 34 -56 -22 -217 -22 -253 0 -6 4 -10 -9 -10 -33z m250 -22
c0 -5 -2 -10 -4 -10 -3 0 -8 5 -11 10 -3 6 -1 10 4 10 6 0 11 -4 11 -10z"/>
<path d="M5020 519 c0 -11 5 -17 10 -14 6 3 10 13 10 21 0 8 -4 14 -10 14 -5
0 -10 -9 -10 -21z"/>
<path d="M5060 520 c0 -11 5 -20 10 -20 6 0 10 9 10 20 0 11 -4 20 -10 20 -5
0 -10 -9 -10 -20z"/>
<path d="M5100 520 c0 -11 5 -20 10 -20 6 0 10 9 10 20 0 11 -4 20 -10 20 -5
0 -10 -9 -10 -20z"/>
<path d="M5140 520 c0 -11 5 -20 10 -20 6 0 10 9 10 20 0 11 -4 20 -10 20 -5
0 -10 -9 -10 -20z"/>
<path d="M5180 520 c0 -11 5 -20 10 -20 6 0 10 9 10 20 0 11 -4 20 -10 20 -5
0 -10 -9 -10 -20z"/>
<path d="M5220 526 c0 -8 5 -18 10 -21 6 -3 10 3 10 14 0 12 -4 21 -10 21 -5
0 -10 -6 -10 -14z"/>
<path d="M4833 420 c0 -25 2 -35 4 -22 2 12 2 32 0 45 -2 12 -4 2 -4 -23z"/>
<path d="M4918 448 c-2 -7 -1 -26 3 -43 l7 -30 2 30 2 30 8 -30 c5 -21 8 -24
9 -9 0 11 6 25 13 32 9 9 7 12 -11 12 -12 0 -19 4 -16 10 3 6 2 10 -3 10 -6 0
-12 -6 -14 -12z"/>
<path d="M5088 449 c-6 -17 3 -69 11 -69 7 0 6 69 -2 76 -3 3 -7 0 -9 -7z"/>
<path d="M6365 450 l-40 -7 37 -2 c20 0 40 4 43 9 3 6 5 9 3 9 -2 -1 -21 -5
-43 -9z"/>
<path d="M6554 431 c-9 -14 -13 -23 -9 -19 4 4 17 2 28 -4 20 -10 20 -11 2
-24 -10 -8 -13 -14 -6 -14 17 0 61 46 61 63 0 9 -13 17 -30 19 -24 4 -33 -1
-46 -21z m60 -6 c-7 -16 -14 -18 -38 -9 -22 9 -10 24 19 24 18 0 23 -4 19 -15z"/>
<path d="M5260 422 c0 -17 3 -33 8 -35 9 -6 8 50 -1 60 -4 3 -7 -8 -7 -25z"/>
<path d="M6706 438 c3 -5 10 -6 15 -3 13 9 11 12 -6 12 -8 0 -12 -4 -9 -9z"/>
<path d="M6883 443 c35 -6 34 -15 -4 -47 -17 -14 -27 -26 -23 -26 4 0 16 7 26
17 17 15 19 15 36 0 10 -10 23 -17 28 -17 5 0 -2 9 -16 20 -20 15 -23 21 -12
31 21 22 14 29 -25 28 -31 -2 -33 -3 -10 -6z"/>
<path d="M4857 434 c-11 -11 -8 -54 3 -54 6 0 10 11 10 25 0 33 17 32 23 0 4
-23 4 -23 3 2 -1 27 -24 42 -39 27z"/>
<path d="M4980 430 c0 -5 6 -7 13 -4 7 2 13 -4 14 -16 1 -11 -3 -20 -8 -20 -6
0 -7 5 -3 11 4 7 2 10 -5 8 -27 -9 -3 -24 38 -24 50 0 63 16 29 34 -13 6 -15
9 -5 7 9 -3 17 -1 17 5 0 13 -32 7 -37 -7 -2 -6 7 -16 19 -22 23 -11 22 -11
-4 -9 -22 1 -28 6 -28 24 0 16 -6 23 -20 23 -11 0 -20 -4 -20 -10z"/>
<path d="M5121 408 c2 -31 2 -31 6 -5 5 33 20 36 25 5 2 -15 11 -24 26 -26 19
-3 22 1 21 30 -1 29 -2 30 -8 9 -9 -34 -31 -39 -31 -7 0 19 -5 26 -20 26 -16
0 -20 -6 -19 -32z"/>
<path d="M5214 425 c-4 -8 -4 -22 0 -30 6 -16 36 -21 36 -5 0 5 -7 7 -15 4
-11 -4 -15 0 -15 16 0 16 4 20 15 16 8 -3 15 -1 15 4 0 16 -30 11 -36 -5z"/>
<path d="M5294 410 c1 -18 7 -26 24 -28 19 -3 22 1 21 30 -1 29 -2 30 -8 9 -9
-33 -29 -38 -34 -9 -4 21 -4 21 -3 -2z"/>
<path d="M5351 408 c1 -22 3 -26 6 -13 3 11 10 26 15 33 8 9 6 12 -6 12 -12 0
-16 -9 -15 -32z"/>
<path d="M5391 427 c-15 -19 -4 -47 20 -47 10 0 19 4 19 10 0 5 -7 7 -15 4 -8
-4 -15 -1 -15 5 0 6 7 11 16 11 9 0 14 5 12 12 -6 18 -24 20 -37 5z"/>
<path d="M6647 415 c-22 -31 -12 -33 13 -3 l17 22 25 -27 c14 -15 29 -27 34
-27 4 0 -5 14 -21 30 -35 36 -45 37 -68 5z"/>
<path d="M6343 413 c31 -5 35 -17 10 -32 -10 -6 -13 -11 -6 -11 6 0 18 8 25
19 7 10 22 21 33 24 11 2 -5 5 -35 4 -30 0 -43 -2 -27 -4z"/>
</g>
</svg>
